<svg width="35" height="34" viewBox="0 0 35 34" fill="none" xmlns="http://www.w3.org/2000/svg">
<path d="M14.9095 16.7002L14.2025 17.4072L12.3353 19.2734L11.6282 19.9805L11.0003 19.3525C11.3419 20.1819 11.858 20.9368 12.5501 21.624C13.9259 22.9899 15.5766 23.667 17.5618 23.667C18.0619 23.667 18.5504 23.6089 19.0286 23.4941C19.5068 23.3794 19.9796 23.2066 20.4476 22.9727L21.0921 22.6504L21.6019 23.1592L24.5228 26.0801L23.3958 26.7324C22.4817 27.2616 21.5358 27.6623 20.5599 27.9307C19.5836 28.1991 18.5835 28.333 17.5618 28.333C14.3246 28.333 11.537 27.199 9.25812 24.9443C7.46554 23.1708 6.37574 21.0742 5.98956 18.6855L5.40265 19.2734L4.69464 19.9805L1.41437 16.7002L2.1214 15.9932L7.45441 10.6592L8.16144 9.95215L14.9095 16.7002ZM17.428 5C20.6651 5 23.4529 6.13416 25.7318 8.38867C27.5243 10.1621 28.6131 12.2589 28.9993 14.6475L29.5882 14.0596L30.2952 13.3525L32.8685 15.9258L33.5755 16.6338L26.8284 23.3809L20.0814 16.6338L20.7884 15.9258L23.3616 13.3525L23.9886 13.9795C23.647 13.1508 23.1323 12.3967 22.4407 11.71C21.0649 10.3438 19.4134 9.66699 17.428 9.66699C16.9283 9.66702 16.4402 9.72419 15.9622 9.83887C15.4838 9.95368 15.0105 10.1272 14.5423 10.3613L13.8978 10.6836L11.388 8.17383L10.4681 7.25293L11.5941 6.60156C12.5083 6.07229 13.4539 5.67077 14.43 5.40234C15.4062 5.1339 16.4064 5.00003 17.428 5Z" stroke="#B88E2F" stroke-width="2"/>
</svg>
