<svg width="177" height="41" viewBox="0 0 177 41" fill="none" xmlns="http://www.w3.org/2000/svg">
<path d="M2.822 33V9.2H8.33V33H2.822ZM13.9783 33V9.2H18.5343L32.5763 26.336H30.3662V9.2H35.8063V33H31.2843L17.2083 15.864H19.4183V33H13.9783ZM41.4372 33V9.2H45.9932L60.0352 26.336H57.8252V9.2H63.2652V33H58.7432L44.6672 15.864H46.8772V33H41.4372ZM114.552 33L104.284 9.2H110.234L119.21 30.28H115.708L124.82 9.2H130.294L119.992 33H114.552ZM137.347 18.788H148.805V23.072H137.347V18.788ZM137.755 28.58H150.709V33H132.281V9.2H150.267V13.62H137.755V28.58ZM152.139 33L162.373 18.89V22.902L152.581 9.2H158.837L165.603 18.754L162.985 18.788L169.649 9.2H175.633L165.909 22.664V18.72L176.211 33H169.853L162.849 22.902H165.365L158.463 33H152.139Z" fill="black"/>
<path d="M83.0811 19.7002L82.374 20.4072L80.5068 22.2734L79.7998 22.9805L79.1719 22.3525C79.5135 23.1819 80.0296 23.9368 80.7217 24.624C82.0975 25.9899 83.7482 26.667 85.7334 26.667C86.2334 26.667 86.722 26.6089 87.2002 26.4941C87.6783 26.3794 88.1511 26.2066 88.6191 25.9727L89.2637 25.6504L89.7734 26.1592L92.6943 29.0801L91.5674 29.7324C90.6533 30.2616 89.7074 30.6623 88.7314 30.9307C87.7552 31.1991 86.7551 31.333 85.7334 31.333C82.4962 31.333 79.7086 30.199 77.4297 27.9443C75.6371 26.1708 74.5473 24.0742 74.1611 21.6855L73.5742 22.2734L72.8662 22.9805L69.5859 19.7002L70.293 18.9932L75.626 13.6592L76.333 12.9521L83.0811 19.7002ZM85.5996 8C88.8367 8 91.6245 9.13416 93.9033 11.3887C95.6958 13.1621 96.7846 15.2589 97.1709 17.6475L97.7598 17.0596L98.4668 16.3525L101.04 18.9258L101.747 19.6338L95 26.3809L88.2529 19.6338L88.96 18.9258L91.5332 16.3525L92.1602 16.9795C91.8186 16.1508 91.3038 15.3967 90.6123 14.71C89.2364 13.3438 87.585 12.667 85.5996 12.667C85.0998 12.667 84.6118 12.7242 84.1338 12.8389C83.6554 12.9537 83.1821 13.1272 82.7139 13.3613L82.0693 13.6836L79.5596 11.1738L78.6396 10.2529L79.7656 9.60156C80.6798 9.07229 81.6255 8.67077 82.6016 8.40234C83.5778 8.1339 84.578 8.00003 85.5996 8Z" stroke="#B88E2F" stroke-width="2"/>
</svg>
