<svg width="28" height="28" viewBox="0 0 28 28" fill="none" xmlns="http://www.w3.org/2000/svg">
<path d="M16.085 14.085C14.5608 14.085 13.256 13.5423 12.1706 12.4569C11.0852 11.3715 10.5425 10.0667 10.5425 8.5425C10.5425 7.01831 11.0852 5.71352 12.1706 4.62811C13.256 3.5427 14.5608 3 16.085 3C17.6092 3 18.914 3.5427 19.9994 4.62811C21.0848 5.71352 21.6275 7.01831 21.6275 8.5425C21.6275 10.0667 21.0848 11.3715 19.9994 12.4569C18.914 13.5423 17.6092 14.085 16.085 14.085ZM5 25.17V21.2903C5 20.5051 5.20207 19.7834 5.60621 19.1252C6.01035 18.467 6.54728 17.9647 7.217 17.6183C8.64881 16.9024 10.1037 16.3655 11.5817 16.0076C13.0597 15.6496 14.5608 15.4706 16.085 15.4706C17.6092 15.4706 19.1103 15.6496 20.5883 16.0076C22.0663 16.3655 23.5212 16.9024 24.953 17.6183C25.6227 17.9647 26.1596 18.467 26.5638 19.1252C26.9679 19.7834 27.17 20.5051 27.17 21.2903V25.17H5ZM7.77125 22.3988H24.3988V21.2903C24.3988 21.0362 24.3352 20.8053 24.2082 20.5974C24.0812 20.3896 23.9138 20.2279 23.7059 20.1125C22.4589 19.4889 21.2003 19.0213 19.9301 18.7095C18.66 18.3978 17.3783 18.2419 16.085 18.2419C14.7918 18.2419 13.51 18.3978 12.2399 18.7095C10.9697 19.0213 9.71112 19.4889 8.46406 20.1125C8.25622 20.2279 8.08879 20.3896 7.96177 20.5974C7.83476 20.8053 7.77125 21.0362 7.77125 21.2903V22.3988ZM16.085 11.3138C16.8471 11.3138 17.4995 11.0424 18.0422 10.4997C18.5849 9.95699 18.8562 9.30459 18.8562 8.5425C18.8562 7.78041 18.5849 7.12801 18.0422 6.5853C17.4995 6.0426 16.8471 5.77125 16.085 5.77125C15.3229 5.77125 14.6705 6.0426 14.1278 6.5853C13.5851 7.12801 13.3138 7.78041 13.3138 8.5425C13.3138 9.30459 13.5851 9.95699 14.1278 10.4997C14.6705 11.0424 15.3229 11.3138 16.085 11.3138Z" fill="black"/>
</svg>
